<svg xmlns="http://www.w3.org/2000/svg" width="208" height="36" viewBox="0 0 208 36">
  <path d="M63.07,25.3c-.35,5.12-2.34,8-6.2,9.69l-1.19-1.6c3.74-1.52,5.11-3.74,5.28-7.08H54.91v3H53V24.52h8.63Zm11.85-.16v9.23H65.5V32.54h7.44V26.93H65.5v-1.8h9.42Zm12.22,3.64v1.95H77.45V28.78h9.69Zm5.27-4.26v4.3a7.12,7.12,0,0,1-3.3,6.39l-1.48-1.37a5.19,5.19,0,0,0,2.89-5.1V24.52Zm3.84-.22v7.88A12.6,12.6,0,0,0,99.58,29l.83,1.8a19.75,19.75,0,0,1-4.62,4.08L94.31,34V24.3Zm11.09-.09A12,12,0,0,1,103.19,30L102,28.64a9.45,9.45,0,0,0,3.78-5Zm-2.7,9.37a43.66,43.66,0,0,0,2-5.42l1.85.48c-.52,1.4-1.25,3.16-2.06,4.85,1.42-.1,2.91-.19,4.21-.3a23.33,23.33,0,0,0-1.54-2l1.53-.78A19.5,19.5,0,0,1,113.86,35l-1.72.89c-.18-.41-.38-.84-.6-1.28-2.6.28-6.21.6-8.36.77l-.4-1.72,1.86-.09Zm10-5.1-1.2,1.42a11.3,11.3,0,0,1-4.16-5.67l1.57-.62A9,9,0,0,0,114.59,28.48Zm4.61,5.05V30.59h-2.39V29h6.3v1.62H121v2.62c.9-.17,1.77-.33,2.48-.48l.13,1.48c-2,.48-5.07,1.14-6.85,1.48L116.31,34l2.89-.47Zm4.29-7.63c0-.76-.07-1.55-.12-2.35h1.94c0,.82,0,1.61,0,2.35h1.85a8.18,8.18,0,0,0-1.43-1.51l1.11-.88a8.47,8.47,0,0,1,1.71,1.62l-1.12.78h1.38v1.65h-3.4c.25,3.78.78,6.32,1.5,6.42.22,0,.32-.38.37-1.61l1.55.46c-.24,2.7-1,3.38-2.32,3.12-1.8-.38-2.59-3.79-3-8.39h-7.24V25.91h7.13Zm13.44,8.28c1.51,0,5.17,0,6.94-.07l-.32,1.56c-1.7.06-5.21.07-6.9,0a3.68,3.68,0,0,1-3-1.27c-.6.53-1.23,1-1.88,1.51l-.72-1.67a14.45,14.45,0,0,0,1.63-1V30.3H131.3V28.74h3.09V33a3.11,3.11,0,0,0,2.53,1.18Zm-4.22-10.6a11.17,11.17,0,0,1,2,2.37l-1.5,1a10.18,10.18,0,0,0-1.83-2.45Zm7.3,8.11v2.07h-1.67V31.69H137v2.06h-1.69V26.56h2.41c-.35-.25-.71-.51-1.11-.76l1-.81h-2.24V23.64H142l1.07.66a28.94,28.94,0,0,1-2.81,2.26h2.81v5.91c0,.72-.2,1.12-.82,1.24a8.14,8.14,0,0,1-1.56,0l-.26-1.35a4.57,4.57,0,0,0,.74,0,.16.16,0,0,0,.19-.13v-.59Zm-1.67-3.17v-.65H137v.65Zm0,1.9v-.67H137v.67Zm.71-4.57c.33-.27.68-.56,1-.86h-2.34C138.21,25.28,138.65,25.57,139.05,25.85Zm2.34,2.66v-.64H140v.65h1.38Zm0,1.9v-.66H140v.67h1.38Zm7,2.56a11.64,11.64,0,0,1-1.3,2.85l-1.35-.58a9.62,9.62,0,0,0,1.23-2.71h-.72V23.67h4.73v8.86h-.73a13.34,13.34,0,0,1,.79,1.61,13.72,13.72,0,0,0,.84-5.34V23.67h6.5v1.58h-4.85v1.53h3.34L158,27a16.78,16.78,0,0,1-1.53,5.6,6.86,6.86,0,0,0,2,1.9l-1.18,1.36a8.91,8.91,0,0,1-1.74-1.73,8.49,8.49,0,0,1-1.76,1.73l-1.15-1.25a13.29,13.29,0,0,1-.54,1.22c-.54-.27-1.07-.51-1.59-.75l.24-.43-1.12.43a10.28,10.28,0,0,0-.8-2.08l1.06-.45h-2.83Zm-.56-6.72h1.49v-1h-1.49v1Zm0,2.37h1.49V27.57h-1.49v1.05Zm0,2.38h1.49V29.93h-1.49V31Zm5.7-1.5a17.05,17.05,0,0,1-.81,5,6.85,6.85,0,0,0,2-1.85,13.13,13.13,0,0,1-1.17-3.15ZM155.6,31a10.28,10.28,0,0,0,.64-2.61h-2.77v.6l1.37-.45A12.5,12.5,0,0,0,155.6,31Z" style="fill: #666"/>
  <path d="M85.3.2H82.71V12.8H93.49V10.44H85.3Z"/>
  <path d="M57.37,0c-3.92,0-7.12,2.92-7.12,6.5s3.2,6.5,7.12,6.5,7.12-2.92,7.12-6.5S61.3,0,57.37,0Zm0,10.64A4.35,4.35,0,0,1,52.84,6.5a4.55,4.55,0,0,1,9.06,0A4.35,4.35,0,0,1,57.37,10.64Z"/>
  <path d="M41.79,2.36a4.7,4.7,0,0,1,3.54,1.56l2-1.48A7.37,7.37,0,0,0,41.79,0c-3.92,0-7.12,2.92-7.12,6.5s3.2,6.5,7.12,6.5a7.37,7.37,0,0,0,5.56-2.44l-2-1.48a4.7,4.7,0,0,1-3.54,1.56A4.35,4.35,0,0,1,37.26,6.5,4.35,4.35,0,0,1,41.79,2.36Z"/>
  <path d="M9.55,4.56l2.54,8.24h2.7L19.11.2H16.4L13.5,8.65,10.9.2H8.21L5.6,8.65,2.71.2H0L4.32,12.8H7Z"/>
  <path d="M22.09,12.8l1.18-2.75h5.65L30.1,12.8h2.78L27.48.2H24.7L19.31,12.8Zm4-9.36,1.82,4.24H24.28Z"/>
  <path d="M68.83,12.8,70,10.05h5.65l1.18,2.75h2.78L74.22.2H71.44L66.05,12.8Zm4-9.36,1.82,4.24H71Z"/>
  <path d="M160.05,4.38h3.67v8.29h2.1V4.38h3.67V2.46h-9.44Z"/>
  <path d="M139,7.4a2.83,2.83,0,0,0,.79-1.95,3.14,3.14,0,0,0-3.27-3h-6.12V12.67h6.25A3.23,3.23,0,0,0,140,9.6,3,3,0,0,0,139,7.4Zm-6.5-3h4a1.13,1.13,0,0,1,1.18,1.07,1.13,1.13,0,0,1-1.18,1.08h-4Zm4.15,6.38h-4.15V8.44h4.15A1.22,1.22,0,0,1,137.9,9.6,1.22,1.22,0,0,1,136.63,10.76Z"/>
  <path d="M177.49,2.3a5.53,5.53,0,0,0-5.76,5.27,5.78,5.78,0,0,0,11.52,0A5.53,5.53,0,0,0,177.49,2.3Zm0,8.62a3.53,3.53,0,0,1-3.67-3.35,3.69,3.69,0,0,1,7.34,0A3.53,3.53,0,0,1,177.49,10.92Z"/>
  <path d="M120.46,8.36h4.36V6.45h-4.36V4.38h6.46V2.46h-8.56V12.67h8.74V10.76h-6.64Z"/>
  <path d="M201.36,10.76V8.36h4.37V6.45h-4.37V4.38h6.47V2.46h-8.56V12.67H208V10.76Z"/>
  <path d="M152.22,6.37c-1.22,0-2.53-.26-2.53-.84s1.08-1.31,2.53-1.31A5.6,5.6,0,0,1,155,5l.84.56L157.09,4l-.84-.56a7.75,7.75,0,0,0-4-1.15c-2.59,0-4.63,1.42-4.63,3.23s1.73,2.75,4.63,2.75c1.47,0,3.06.34,3.06,1.08s-1.26,1.56-3.06,1.56a6,6,0,0,1-3.32-1.2l-.78-.63-1.4,1.42.78.64a8.15,8.15,0,0,0,4.72,1.68c2.89,0,5.15-1.52,5.15-3.47S155.4,6.37,152.22,6.37Z"/>
  <path d="M186.54,6.93v5.74h2.1V8.84h2.55l2.52,3.83h2.44l-2.64-4a3.23,3.23,0,0,0,2.29-3,3.35,3.35,0,0,0-3.49-3.19h-5.77Zm2.1-2.55h3.67a1.34,1.34,0,0,1,1.4,1.27,1.34,1.34,0,0,1-1.4,1.28h-3.67Z"/>
  <path d="M105.68,12.67,107.74,6l2.05,6.67H112l3.49-10.21h-2.19l-2.35,6.85-2.11-6.85h-2.17l-2.11,6.85L102.2,2.46H100l3.49,10.21Z"/>
</svg>
